{
  "source": "C:\\Users\\Peter\\Desktop\\stuff\\MIUN\\quantitative_research\\video_compression\\videos\\BVI-HD\\BVI-HD_CDVL_videos\\ORIG\\Rowing_1920x1080_30fps.mp4",
  "output": "C:\\Users\\Peter\\Desktop\\stuff\\MIUN\\quantitative_research\\video_compression\\compressed_videos\\BVI-HD\\vp9\\1\\Rowing_1920x1080_30fps_vp9.webm",
  "codec": "vp9",
  "ok": "Input #0, mov,mp4,m4a,3gp,3g2,mj2, from 'C:\\Users\\Peter\\Desktop\\stuff\\MIUN\\quantitative_research\\video_compression\\videos\\BVI-HD\\BVI-HD_CDVL_videos\\ORIG\\Rowing_1920x1080_30fps.mp4':\n  Metadata:\n    major_brand     : isom\n    minor_version   : 512\n    compatible_brands: isomiso2avc1mp41\n    encoder         : Lavf54.28.101\n  Duration: 00:00:05.00, start: 0.000000, bitrate: 259220 kb/s\n  Stream #0:0[0x1](und): Video: h264 (High 4:4:4 Predictive) (avc1 / 0x31637661), yuv420p(progressive), 1920x1080, 259216 kb/s, 30 fps, 30 tbr, 30 tbn (default)\n    Metadata:\n      handler_name    : VideoHandler\n      vendor_id       : [0][0][0][0]\n[out#0/webm @ 0000023b8e8d9700] Codec AVOption b:a (set bitrate (in bits/s)) has not been used for any stream. The most likely reason is either wrong type (e.g. a video option with no video streams) or that it is a private option of some decoder which was not actually used for any stream.\nStream mapping:\n  Stream #0:0 -> #0:0 (h264 (native) -> vp9 (libvpx-vp9))\nPress [q] to stop, [?] for help\n[libvpx-vp9 @ 0000023b8f340440] v1.15.2-100-g40561f514\nOutput #0, webm, to 'C:\\Users\\Peter\\Desktop\\stuff\\MIUN\\quantitative_research\\video_compression\\compressed_videos\\BVI-HD\\vp9\\1\\Rowing_1920x1080_30fps_vp9.webm':\n  Metadata:\n    major_brand     : isom\n    minor_version   : 512\n    compatible_brands: isomiso2avc1mp41\n    encoder         : Lavf62.3.100\n  Stream #0:0(und): Video: vp9, yuv420p(tv, progressive), 1920x1080, q=2-31, 1000 kb/s, 30 fps, 1k tbn (default)\n    Metadata:\n      encoder         : Lavc62.11.100 libvpx-vp9\n      handler_name    : VideoHandler\n      vendor_id       : [0][0][0][0]\n    Side data:\n      cpb: bitrate max/min/avg: 0/0/0 buffer size: 1000000 vbv_delay: N/A\nframe=    0 fps=0.0 q=0.0 size=       0KiB time=N/A bitrate=N/A speed=N/A elapsed=0:00:00.53    \nframe=    4 fps=3.1 q=63.0 size=       1KiB time=00:00:00.13 bitrate=  38.0kbits/s speed=0.105x elapsed=0:00:01.27    \nframe=    8 fps=4.4 q=63.0 size=       1KiB time=00:00:00.26 bitrate=  19.0kbits/s speed=0.147x elapsed=0:00:01.81    \nframe=   11 fps=4.6 q=51.0 size=       1KiB time=00:00:00.36 bitrate=  13.8kbits/s speed=0.154x elapsed=0:00:02.37    \nframe=   14 fps=4.8 q=63.0 size=       1KiB time=00:00:00.46 bitrate=  10.9kbits/s speed=0.16x elapsed=0:00:02.90    \nframe=   18 fps=5.2 q=63.0 size=       1KiB time=00:00:00.60 bitrate=   8.5kbits/s speed=0.173x elapsed=0:00:03.45    \nframe=   20 fps=5.0 q=63.0 size=       1KiB time=00:00:00.66 bitrate=   7.6kbits/s speed=0.166x elapsed=0:00:04.01    \nframe=   24 fps=5.3 q=63.0 size=       1KiB time=00:00:00.80 bitrate=   6.3kbits/s speed=0.177x elapsed=0:00:04.52    \nframe=   27 fps=5.3 q=63.0 size=       1KiB time=00:00:00.90 bitrate=   5.6kbits/s speed=0.176x elapsed=0:00:05.10    \nframe=   30 fps=5.3 q=63.0 size=       1KiB time=00:00:01.00 bitrate=   5.1kbits/s speed=0.176x elapsed=0:00:05.67    \nframe=   32 fps=5.2 q=63.0 size=       1KiB time=00:00:01.06 bitrate=   4.8kbits/s speed=0.172x elapsed=0:00:06.20    \nframe=   35 fps=5.2 q=63.0 size=       1KiB time=00:00:01.16 bitrate=   4.3kbits/s speed=0.174x elapsed=0:00:06.71    \nframe=   38 fps=5.2 q=63.0 size=       1KiB time=00:00:01.26 bitrate=   4.0kbits/s speed=0.175x elapsed=0:00:07.24    \nframe=   40 fps=5.1 q=63.0 size=       1KiB time=00:00:01.33 bitrate=   3.8kbits/s speed=0.171x elapsed=0:00:07.78    \nframe=   43 fps=5.2 q=63.0 size=       1KiB time=00:00:01.43 bitrate=   3.5kbits/s speed=0.173x elapsed=0:00:08.30    \nframe=   46 fps=5.2 q=63.0 size=       1KiB time=00:00:01.53 bitrate=   3.3kbits/s speed=0.174x elapsed=0:00:08.81    \nframe=   49 fps=5.2 q=63.0 size=       1KiB time=00:00:01.63 bitrate=   3.1kbits/s speed=0.175x elapsed=0:00:09.34    \nframe=   52 fps=5.3 q=63.0 size=       1KiB time=00:00:01.73 bitrate=   2.9kbits/s speed=0.176x elapsed=0:00:09.86    \nframe=   55 fps=5.3 q=63.0 size=       1KiB time=00:00:01.83 bitrate=   2.8kbits/s speed=0.177x elapsed=0:00:10.38    \nframe=   58 fps=5.3 q=63.0 size=       1KiB time=00:00:01.93 bitrate=   2.6kbits/s speed=0.177x elapsed=0:00:10.91    \nframe=   61 fps=5.3 q=63.0 size=       1KiB time=00:00:02.03 bitrate=   2.5kbits/s speed=0.178x elapsed=0:00:11.43    \nframe=   64 fps=5.4 q=63.0 size=       1KiB time=00:00:02.13 bitrate=   2.4kbits/s speed=0.178x elapsed=0:00:11.95    \nframe=   67 fps=5.4 q=63.0 size=       1KiB time=00:00:02.23 bitrate=   2.3kbits/s speed=0.179x elapsed=0:00:12.47    \nframe=   70 fps=5.4 q=63.0 size=       1KiB time=00:00:02.33 bitrate=   2.2kbits/s speed=0.179x elapsed=0:00:13.01    \nframe=   73 fps=5.4 q=63.0 size=       1KiB time=00:00:02.43 bitrate=   2.1kbits/s speed=0.18x elapsed=0:00:13.55    \nframe=   77 fps=5.5 q=56.0 size=       1KiB time=00:00:02.53 bitrate=   2.0kbits/s speed=0.18x elapsed=0:00:14.07    \nframe=   80 fps=5.5 q=63.0 size=       1KiB time=00:00:02.66 bitrate=   1.9kbits/s speed=0.182x elapsed=0:00:14.61    \nframe=   83 fps=5.5 q=56.0 size=       1KiB time=00:00:02.76 bitrate=   1.8kbits/s speed=0.183x elapsed=0:00:15.12    \nframe=   87 fps=5.6 q=63.0 size=       1KiB time=00:00:02.90 bitrate=   1.7kbits/s speed=0.185x elapsed=0:00:15.65    \nframe=   90 fps=5.6 q=63.0 size=       1KiB time=00:00:03.00 bitrate=   1.7kbits/s speed=0.185x elapsed=0:00:16.20    \nframe=   94 fps=5.6 q=63.0 size=       1KiB time=00:00:03.13 bitrate=   1.6kbits/s speed=0.187x elapsed=0:00:16.78    \nframe=   97 fps=5.6 q=63.0 size=       1KiB time=00:00:03.23 bitrate=   1.6kbits/s speed=0.187x elapsed=0:00:17.30    \nframe=  100 fps=5.6 q=63.0 size=       1KiB time=00:00:03.33 bitrate=   1.5kbits/s speed=0.187x elapsed=0:00:17.83    \nframe=  104 fps=5.7 q=63.0 size=       1KiB time=00:00:03.46 bitrate=   1.5kbits/s speed=0.189x elapsed=0:00:18.35    \nframe=  108 fps=5.7 q=63.0 size=       1KiB time=00:00:03.60 bitrate=   1.4kbits/s speed=0.191x elapsed=0:00:18.87    \nframe=  112 fps=5.8 q=63.0 size=       1KiB time=00:00:03.73 bitrate=   1.4kbits/s speed=0.192x elapsed=0:00:19.41    \nframe=  116 fps=5.8 q=63.0 size=       1KiB time=00:00:03.86 bitrate=   1.3kbits/s speed=0.194x elapsed=0:00:19.97    \nframe=  119 fps=5.8 q=56.0 size=       1KiB time=00:00:03.96 bitrate=   1.3kbits/s speed=0.193x elapsed=0:00:20.53    \nframe=  123 fps=5.8 q=63.0 size=       1KiB time=00:00:04.10 bitrate=   1.2kbits/s speed=0.195x elapsed=0:00:21.06    \nframe=  125 fps=5.8 q=63.0 size=       1KiB time=00:00:04.16 bitrate=   1.2kbits/s speed=0.193x elapsed=0:00:21.60    \nframe=  126 fps=5.7 q=63.0 size=       1KiB time=00:00:04.20 bitrate=   1.2kbits/s speed=0.189x elapsed=0:00:22.21    \nframe=  126 fps=5.5 q=63.0 size=       1KiB time=00:00:04.20 bitrate=   1.2kbits/s speed=0.183x elapsed=0:00:22.91    \nframe=  126 fps=5.3 q=63.0 size=       1KiB time=00:00:04.20 bitrate=   1.2kbits/s speed=0.178x elapsed=0:00:23.61    \nframe=  126 fps=5.2 q=63.0 size=       1KiB time=00:00:04.20 bitrate=   1.2kbits/s speed=0.173x elapsed=0:00:24.27    \nframe=  126 fps=5.1 q=63.0 size=       1KiB time=00:00:04.20 bitrate=   1.2kbits/s speed=0.168x elapsed=0:00:24.92    \nframe=  126 fps=4.9 q=63.0 size=       1KiB time=00:00:04.20 bitrate=   1.2kbits/s speed=0.164x elapsed=0:00:25.55    \nframe=  126 fps=4.8 q=63.0 size=       1KiB time=00:00:04.20 bitrate=   1.2kbits/s speed=0.161x elapsed=0:00:26.11    \nframe=  126 fps=4.7 q=63.0 size=       1KiB time=00:00:04.20 bitrate=   1.2kbits/s speed=0.157x elapsed=0:00:26.71    \nframe=  150 fps=5.5 q=63.0 size=     768KiB time=00:00:04.20 bitrate=1498.0kbits/s speed=0.154x elapsed=0:00:27.24    \n[out#0/webm @ 0000023b8e8d9700] video:932KiB audio:0KiB subtitle:0KiB other streams:0KiB global headers:0KiB muxing overhead: 0.183768%\nframe=  150 fps=5.5 q=63.0 Lsize=     934KiB time=00:00:05.00 bitrate=1529.9kbits/s speed=0.183x elapsed=0:00:27.31    \n",
  "seconds": 27.93551278114319,
  "probe_out": {}
}